<svg version="1.1" xmlns="http://www.w3.org/2000/svg" xmlns:xlink="http://www.w3.org/1999/xlink" preserveAspectRatio="xMidYMid meet" viewBox="754 395 626 126"><g data-item-type="text" data-item="Business" id="logo__item--business" class="logo__item">
                <g class="logo__item__inner" transform="translate(906.859375 485.23552970221624) scale(2.5382190849105633 2.5382190849105633) rotate(0 0 0)">
                    <text data-part-id="logo__item--business" dy="0" dominant-baseline="auto" alignment-baseline="auto" font-family="Finger Paint" font-size="32px" fill="#029cf7" letter-spacing="0" font-weight="normal" font-style="normal" data-font-family="Finger Paint" data-font-weight="normal" data-font-style="normal" data-ttf-url="/builder_assets/fontsttf/font-montserrat-bold-normal.ttf" data-font-filename="finger-paint-normal-normal">LampCloud</text>
                </g>
            </g><g data-item-type="image" data-item="Image" data-logo-item="" id="logo__item--logo_0" class="logo__item">
    <g class="logo__item__inner" transform="translate(738.0531581539898 380.5) scale(1.0371651094656589 1.0371651094656589) rotate(0 0 0)">
        
<g>
	<g>
		<g>
			<path fill="#029cf7" d="M18.8,22.9c0,3.2,2.6,5.7,5.7,5.7c54.3,0,98.5,44.2,98.5,98.5c0,3.2,2.6,5.7,5.7,5.7     c3.2,0,5.7-2.6,5.7-5.7c0-60.6-49.3-110-110-110C21.4,17.1,18.8,19.7,18.8,22.9z" data-part-id="logo__item--logo_0__0"></path>
		</g>
		<g>
			<path fill="#00A9DE" d="M26.8,52.2c-2.5,0-4.6,2.1-4.6,4.6c0,2.5,2.1,4.6,4.6,4.6c35,0,63.4,28.4,63.4,63.4     c0,2.5,2.1,4.6,4.6,4.6c2.5,0,4.6-2.1,4.6-4.6C99.4,84.8,66.8,52.2,26.8,52.2z" data-part-id="logo__item--logo_0__1"></path>
		</g>
		<g>
			<path fill="#FA8A3B" d="M29,88.1c0,2.2,1.8,4,4,4c14.6,0,26.5,11.9,26.5,26.5c0,2.2,1.8,4,4,4c2.2,0,4-1.8,4-4     c0-19.1-15.5-34.6-34.6-34.6C30.8,84.1,29,85.9,29,88.1z" data-part-id="logo__item--logo_0__2"></path>
		</g>
	</g>
	<circle fill="#FA8A3B" cx="33" cy="118.7" r="8.2" data-part-id="logo__item--logo_0__3"></circle>
</g>

    </g>
</g></svg>